<?xml version="1.0" standalone="no"?>
<!DOCTYPE svg PUBLIC "-//W3C//DTD SVG 20010904//EN"
 "http://www.w3.org/TR/2001/REC-SVG-20010904/DTD/svg10.dtd">
<svg version="1.0" xmlns="http://www.w3.org/2000/svg"
 width="500.000000pt" height="500.000000pt" viewBox="0 0 500.000000 500.000000"
 preserveAspectRatio="xMidYMid meet">

<g transform="translate(0.000000,500.000000) scale(0.100000,-0.100000)"
fill="#000000" stroke="none">
<path d="M2258 3750 c-258 -54 -476 -170 -656 -349 -188 -187 -312 -427 -358
-695 -22 -127 -15 -377 15 -496 119 -476 473 -832 944 -951 117 -30 386 -37
517 -15 394 69 743 330 923 691 96 193 131 364 124 605 -6 238 -49 395 -160
588 -192 334 -502 553 -886 626 -117 22 -349 20 -463 -4z m429 -85 c511 -83
908 -488 984 -1005 18 -123 7 -322 -25 -443 -56 -218 -145 -374 -301 -532
-244 -247 -507 -359 -845 -359 -233 0 -420 51 -609 166 -531 324 -724 995
-443 1542 235 458 735 713 1239 631z"/>
<path d="M1908 3488 c-16 -12 -17 -84 -19 -989 -1 -537 1 -981 5 -987 5 -9 62
-12 191 -12 160 0 186 2 201 17 15 16 16 42 9 319 l-7 302 289 5 c263 4 295 6
363 27 197 59 335 172 421 345 67 136 86 295 54 462 -35 188 -164 357 -335
440 -151 74 -166 75 -690 80 -374 4 -468 2 -482 -9z m938 -348 c120 -62 177
-169 176 -335 -1 -169 -77 -277 -232 -331 -47 -16 -85 -19 -275 -19 l-220 0
-3 363 -2 363 243 -3 244 -3 69 -35z"/>
</g>
</svg>
